<svg xmlns="http://www.w3.org/2000/svg" viewBox="0 0 256 256">
  <defs>
    <linearGradient id="grad" x1="0%" y1="0%" x2="100%" y2="100%">
      <stop offset="0%" style="stop-color:#667eea;stop-opacity:1" />
      <stop offset="100%" style="stop-color:#764ba2;stop-opacity:1" />
    </linearGradient>
  </defs>
  <rect width="256" height="256" rx="48" fill="url(#grad)"/>
  <path d="M180 90c-8.8 3.9-18.3 6.5-28.2 7.7 10.1-6.1 17.9-15.7 21.6-27.2-9.5 5.6-20 9.7-31.2 11.9-9-9.6-21.7-15.5-35.8-15.5-27.1 0-49 22-49 49 0 3.8.4 7.6 1.3 11.2-40.8-2-76.9-21.6-101.1-51.3-4.2 7.2-6.6 15.6-6.6 24.6 0 17 8.6 32 21.8 40.7-8-.3-15.6-2.5-22.2-6.1v.6c0 23.8 16.9 43.6 39.3 48.1-4.1 1.1-8.4 1.7-12.9 1.7-3.2 0-6.2-.3-9.2-.9 6.2 19.4 24.3 33.5 45.7 33.9-16.7 13.1-37.9 20.9-60.8 20.9-4 0-7.9-.2-11.7-.7 21.7 13.9 47.4 22 75.1 22 90.1 0 139.4-74.7 139.4-139.4 0-2.1 0-4.2-.1-6.4 9.6-6.9 17.9-15.5 24.5-25.4z" fill="white" transform="translate(28, 38) scale(0.75)"/>
</svg>
